<svg width="88" height="28" viewBox="0 0 88 28" fill="none" xmlns="http://www.w3.org/2000/svg">
<g clip-path="url(#clip0_826_18906)">
<path d="M6.42928 27.9441C2.4998 27.9441 0.378603 26.1648 0.160515 23.1194C0.0668101 21.8533 0.0980452 21.5108 0.0980452 19.8682H4.43303C4.43303 21.1349 4.46426 22.0926 4.49549 22.2978C4.61988 23.1902 5.18155 23.8038 6.30434 23.8038C7.52028 23.8038 8.17565 23.0508 8.17565 21.6843C8.17565 19.3913 7.55151 18.1938 5.71199 16.3804C5.39964 16.0726 4.12123 14.8064 3.46641 14.1906C1.22083 12.0326 0.0361328 10.2874 0.0361328 6.5916C0.0361328 2.6214 2.40609 0.0556641 6.33557 0.0556641C10.2957 0.0556641 12.0114 2.51933 12.3545 5.63335C12.4482 6.21511 12.5413 7.65248 12.5413 8.43949H8.17565C8.17521 7.69629 8.13349 6.95368 8.05071 6.21511C7.92577 5.12021 7.4896 4.43582 6.30267 4.43582C5.08617 4.43582 4.49382 5.04937 4.49382 6.48897C4.49382 8.37088 5.55358 9.70562 6.95749 11.1084C7.58107 11.722 8.76633 12.8877 9.2343 13.3668C11.4793 15.6938 12.6646 17.5757 12.6646 21.2375C12.6646 25.4804 10.1697 27.9441 6.42761 27.9441" fill="#5921CF"/>
<path d="M14.3813 27.6363V0.32959H25.3588V5.01764H18.9344V11.6556H24.9221V16.1044H18.9344V23.0163H25.4213V27.6363H14.3813Z" fill="#5921CF"/>
<path d="M33.1344 27.9441C29.2044 27.9441 27.0837 26.1648 26.8657 23.1194C26.772 21.8533 26.8032 21.5108 26.8032 19.8682H31.1387C31.1387 21.1349 31.1694 22.0926 31.2006 22.2978C31.325 23.1902 31.8867 23.8038 33.0095 23.8038C34.226 23.8038 34.8808 23.0508 34.8808 21.6843C34.8808 19.3913 34.2572 18.1938 32.4171 16.3804C32.1053 16.0726 30.8264 14.8064 30.1716 14.1906C27.926 12.0349 26.7407 10.2896 26.7407 6.59383C26.7407 2.6214 29.1112 0.0556641 33.0407 0.0556641C37.0009 0.0556641 38.7166 2.51933 39.0596 5.63335C39.1533 6.21511 39.2464 7.65248 39.2464 8.43949H34.8808C34.8803 7.69629 34.8386 6.95368 34.7558 6.21511C34.6309 5.12021 34.1942 4.43582 33.0095 4.43582C31.793 4.43582 31.2006 5.04937 31.2006 6.48897C31.2006 8.37088 32.2604 9.70562 33.6643 11.1084C34.2879 11.722 35.4731 12.8877 35.9411 13.3668C38.1861 15.6938 39.3714 17.5757 39.3714 21.2375C39.3714 25.4804 36.8765 27.9441 33.1344 27.9441Z" fill="#5921CF"/>
<path d="M47.4793 8.91812C47.3544 7.4813 47.2607 4.7778 47.2607 4.7778C47.2607 4.7778 47.1051 7.44728 46.9818 8.91812C46.9818 9.05533 45.859 16.9941 45.859 16.9941H48.4142C48.4142 16.9941 47.4782 9.05533 47.4782 8.91812H47.4793ZM44.5477 27.6363H39.9946L44.1422 0.32959H50.5337L54.2451 27.6363H49.6312L48.8202 21.0317H45.4206L44.5477 27.6363Z" fill="#5921CF"/>
<path d="M69.3507 27.6363L69.3819 10.8006L66.6377 27.6363H62.6145L59.8703 10.8346L59.9015 27.6363H55.7222V0.32959H61.8035L64.6415 17.5418L67.6356 0.32959H73.4983V27.6363H69.3507Z" fill="#5921CF"/>
<path d="M75.7129 0.32959V27.6363H86.7528V23.0168H80.2665V5.01764H86.6903V0.32959H75.7129Z" fill="#5921CF"/>
<path d="M83.2677 11.8887C82.4868 11.8887 80.8486 12.2791 80.8486 13.9959C80.8486 15.7127 82.4874 16.1026 83.2677 16.1026C84.0218 16.1026 85.4781 15.8165 86.7526 13.9959C85.4781 12.1748 84.0218 11.8887 83.2677 11.8887Z" fill="#5921CF"/>
</g>
<defs>
<clipPath id="clip0_826_18906">
<rect width="86.7888" height="28" fill="white"/>
</clipPath>
</defs>
</svg>
